<svg width="120" height="66" viewBox="0 0 120 66" fill="none" xmlns="http://www.w3.org/2000/svg">
<g clip-path="url(#clip0_430_2923)">
<path d="M59.664 49.3255C59.1571 49.8726 58.2897 49.8726 57.7829 49.3255L47.0757 37.7627C46.3199 36.9465 46.9012 35.625 48.0163 35.625H69.4305C70.5456 35.625 71.1269 36.9465 70.3711 37.7627L59.664 49.3255Z" fill="#8599B9"/>
<path d="M59.3574 48.0469H58.0781V55.182H59.3574V48.0469Z" fill="#8599B9"/>
<path d="M59.6929 54.7292C59.4431 54.4804 59.038 54.4804 58.7882 54.7292C58.5384 54.978 58.5384 55.3814 58.7882 55.6302L68.739 65.5406C68.9888 65.7894 69.3938 65.7894 69.6436 65.5406C69.8934 65.2918 69.8934 64.8884 69.6436 64.6396L59.6929 54.7292Z" fill="#8599B9"/>
<path d="M58.7882 55.5077C59.038 55.2589 59.038 54.8555 58.7882 54.6067C58.5384 54.3579 58.1334 54.3579 57.8836 54.6067L47.9329 64.5171C47.6831 64.7659 47.6831 65.1693 47.9329 65.4181C48.1827 65.6669 48.5877 65.6669 48.8375 65.4181L58.7882 55.5077Z" fill="#8599B9"/>
<path d="M2.50781 59.5124V44.1719H8.27293C9.57852 44.1719 10.7007 44.3836 11.6396 44.8074C12.5784 45.2164 13.2972 45.8155 13.796 46.6044C14.3094 47.3786 14.5661 48.321 14.5661 49.4315C14.5661 50.5125 14.3094 51.4477 13.796 52.2366C13.2972 53.0108 12.5784 53.6099 11.6396 54.0337C10.7007 54.4572 9.57852 54.6692 8.27293 54.6692H3.40999L4.13613 53.9022V59.5124H2.50781ZM4.13613 54.0337L3.40999 53.2447H8.22892C9.76922 53.2447 10.9354 52.916 11.7276 52.2585C12.5344 51.5863 12.9378 50.644 12.9378 49.4315C12.9378 48.2042 12.5344 47.2545 11.7276 46.5825C10.9354 45.9103 9.76922 45.5744 8.22892 45.5744H3.40999L4.13613 44.8074V54.0337ZM19.5393 51.0313H27.6809V52.4119H19.5393V51.0313ZM19.7153 58.1099H28.9792V59.5124H18.087V44.1719H28.6491V45.5744H19.7153V58.1099ZM35.7992 59.5124V45.5744H30.3862V44.1719H42.8406V45.5744H37.4276V59.5124H35.7992Z" fill="#8599B9"/>
<path d="M76.9609 59.5124V44.1719H78.5893V58.1099H87.2149V59.5124H76.9609ZM87.4542 59.5124L94.4955 44.1719H96.1018L103.143 59.5124H101.427L94.9576 45.1142H95.6177L89.1485 59.5124H87.4542ZM90.2267 55.4143L90.7108 54.0994H99.6665L100.151 55.4143H90.2267ZM105.691 59.5124V44.1719H112.336C114.053 44.1719 115.38 44.5151 116.319 45.2019C117.273 45.8884 117.749 46.86 117.749 48.1166C117.749 48.9494 117.551 49.6506 117.155 50.2204C116.774 50.7902 116.246 51.2211 115.571 51.5134C114.911 51.8054 114.185 51.9517 113.393 51.9517L113.767 51.4258C114.749 51.4258 115.593 51.5792 116.297 51.886C117.016 52.178 117.573 52.6237 117.969 53.2228C118.366 53.8071 118.564 54.5377 118.564 55.4143C118.564 56.7144 118.079 57.7225 117.111 58.4386C116.158 59.1544 114.713 59.5124 112.776 59.5124H105.691ZM107.319 58.1756H112.754C114.104 58.1756 115.138 57.9491 115.857 57.4962C116.576 57.0286 116.935 56.2909 116.935 55.2828C116.935 54.2892 116.576 53.566 115.857 53.1132C115.138 52.6456 114.104 52.4119 112.754 52.4119H107.143V51.0751H112.226C113.459 51.0751 114.412 50.8412 115.087 50.3738C115.776 49.9062 116.121 49.2123 116.121 48.2919C116.121 47.3567 115.776 46.6628 115.087 46.21C114.412 45.7424 113.459 45.5087 112.226 45.5087H107.319V58.1756Z" fill="#8599B9"/>
<path d="M19.3441 1.14551C19.4055 0.799016 19.1732 0.468597 18.8253 0.4075C18.4773 0.346404 18.1456 0.577766 18.0842 0.924262L12.1306 34.5522C12.0692 34.8987 12.3015 35.2291 12.6495 35.2902C12.9974 35.3513 13.3291 35.12 13.3905 34.7735L19.3441 1.14551Z" fill="#8599B9"/>
<path d="M19.4194 0.447964C19.1696 0.199174 18.7646 0.199174 18.5148 0.447964C18.265 0.696754 18.265 1.10012 18.5148 1.34891L32.084 14.8631C32.3338 15.1119 32.7388 15.1119 32.9886 14.8631C33.2384 14.6143 33.2384 14.211 32.9886 13.9622L19.4194 0.447964Z" fill="#8599B9"/>
<path d="M98.9601 1.35142C99.2099 1.10263 99.2099 0.699263 98.9601 0.450474C98.7103 0.201684 98.3053 0.201684 98.0555 0.450474L84.4863 13.9647C84.2365 14.2135 84.2365 14.6168 84.4863 14.8656C84.7361 15.1144 85.1411 15.1144 85.3909 14.8656L98.9601 1.35142Z" fill="#8599B9"/>
<path d="M99.3553 0.921762C99.294 0.575265 98.9622 0.343903 98.6143 0.405C98.2664 0.466096 98.0341 0.796516 98.0955 1.14301L104.049 34.771C104.11 35.1175 104.442 35.3488 104.79 35.2877C105.138 35.2266 105.37 34.8962 105.309 34.5497L99.3553 0.921762Z" fill="#8599B9"/>
<path d="M84.5663 13.8984H32.8818C32.5286 13.8984 32.2422 14.1837 32.2422 14.5355C32.2422 14.8873 32.5286 15.1726 32.8818 15.1726H84.5663C84.9196 15.1726 85.2059 14.8873 85.2059 14.5355C85.2059 14.1837 84.9196 13.8984 84.5663 13.8984Z" fill="#8599B9"/>
</g>
<defs>
<clipPath id="clip0_430_2923">
<rect width="120" height="66" fill="white"/>
</clipPath>
</defs>
</svg>
